<svg width="881" height="211" viewBox="0 0 881 211" fill="none" xmlns="http://www.w3.org/2000/svg">
<circle cx="105.5" cy="105.5" r="105.5" fill="#162132"/>
<circle cx="105.5" cy="105.5" r="105.5" fill="url(#paint0_linear_1026_12789)"/>
<path fill-rule="evenodd" clip-rule="evenodd" d="M70.7136 72.6144V102.268H60.8289V69.1928C60.8289 65.6233 63.7225 62.7297 67.292 62.7297H143.708C147.278 62.7297 150.171 65.6233 150.171 69.1928V102.268H140.287V72.6144H70.7136Z" fill="#36FF8F"/>
<path fill-rule="evenodd" clip-rule="evenodd" d="M70.7136 138.005V108.351H60.8289V141.427C60.8289 144.996 63.7225 147.89 67.292 147.89H143.708C147.278 147.89 150.171 144.996 150.171 141.427V108.351H140.287V138.005H70.7136Z" fill="#21ADFE"/>
<path d="M101.508 6.08276C76.592 7.08314 52.9029 17.42 35.2016 35.1213C16.5572 53.7656 6.08295 79.0527 6.08295 105.42C6.08295 131.787 16.5572 157.074 35.2015 175.718C52.9028 193.42 76.592 203.756 101.508 204.757V189.543C80.6251 188.553 60.7997 179.821 45.9493 164.971C30.1555 149.177 21.2826 127.756 21.2826 105.42C21.2826 83.0839 30.1555 61.6629 45.9493 45.869C60.7997 31.0186 80.6251 22.287 101.508 21.2969V6.08276Z" fill="url(#paint1_linear_1026_12789)"/>
<path d="M109.492 6.08276C134.408 7.08314 158.097 17.42 175.798 35.1213C194.443 53.7656 204.917 79.0527 204.917 105.42C204.917 131.787 194.443 157.074 175.798 175.718C158.097 193.42 134.408 203.756 109.492 204.757V189.543C130.375 188.553 150.2 179.821 165.051 164.971C180.845 149.177 189.717 127.756 189.717 105.42C189.717 83.0839 180.845 61.6629 165.051 45.869C150.2 31.0186 130.375 22.287 109.492 21.2969V6.08276Z" fill="url(#paint2_linear_1026_12789)"/>
<path d="M82.6282 116.804H89.6717C89.8011 116.804 89.9059 116.909 89.9059 117.039V127.661C89.9059 127.791 90.0108 127.895 90.1401 127.895H104.25C104.38 127.895 104.485 127.791 104.485 127.661V117.039C104.485 116.909 104.589 116.804 104.719 116.804H111.851C112.051 116.804 112.159 116.57 112.029 116.418L97.4316 99.3596C97.3382 99.2504 97.1694 99.2503 97.0758 99.3594L82.4504 116.418C82.3202 116.57 82.4281 116.804 82.6282 116.804Z" fill="#36FF8F"/>
<path d="M99.5488 93.9703H106.592C106.722 93.9703 106.827 93.8655 106.827 93.7361V83.1134C106.827 82.984 106.931 82.8792 107.061 82.8792H121.171C121.3 82.8792 121.405 82.984 121.405 83.1134V93.7361C121.405 93.8655 121.51 93.9703 121.639 93.9703H128.771C128.971 93.9703 129.079 94.2048 128.949 94.3568L114.352 111.415C114.259 111.524 114.09 111.524 113.996 111.415L99.371 94.357C99.2408 94.205 99.3487 93.9703 99.5488 93.9703Z" fill="#21ADFE"/>
<path d="M265.367 146.301C258.514 146.301 252.399 144.783 247.022 141.747C241.731 138.625 237.567 134.418 234.531 129.127C231.495 123.749 229.977 117.677 229.977 110.912C229.977 104.059 231.495 97.9877 234.531 92.6966C237.654 87.3189 241.904 83.112 247.282 80.0762C252.66 77.0403 258.775 75.5224 265.627 75.5224C269.617 75.5224 273.347 76.0428 276.816 77.0837C280.373 78.1246 283.539 79.5991 286.314 81.5074C289.177 83.3289 291.518 85.454 293.34 87.8827C295.161 90.3113 296.376 92.8701 296.983 95.559L293.86 94.5182V48.7202H303.618V145H293.991L293.73 127.175L296.332 126.525C295.812 129.127 294.598 131.599 292.689 133.941C290.868 136.283 288.569 138.408 285.794 140.316C283.018 142.138 279.852 143.612 276.296 144.74C272.826 145.781 269.183 146.301 265.367 146.301ZM267.058 137.194C272.349 137.194 277.033 136.066 281.11 133.811C285.273 131.469 288.526 128.346 290.868 124.443C293.21 120.453 294.381 115.899 294.381 110.782C294.381 105.838 293.21 101.414 290.868 97.5106C288.613 93.5207 285.403 90.3981 281.24 88.1429C277.163 85.8877 272.436 84.7601 267.058 84.7601C261.854 84.7601 257.213 85.8877 253.137 88.1429C249.147 90.3981 245.981 93.4773 243.639 97.3805C241.297 101.284 240.126 105.751 240.126 110.782C240.126 115.812 241.297 120.323 243.639 124.313C245.981 128.303 249.147 131.469 253.137 133.811C257.213 136.066 261.854 137.194 267.058 137.194ZM355.9 146.301C348.961 146.301 342.803 144.783 337.425 141.747C332.134 138.711 327.971 134.548 324.935 129.257C321.986 123.879 320.511 117.764 320.511 110.912C320.511 104.059 322.072 97.9877 325.195 92.6966C328.318 87.3189 332.568 83.112 337.946 80.0762C343.323 77.0403 349.438 75.5224 356.291 75.5224C360.541 75.5224 364.444 76.0862 368.001 77.2138C371.644 78.3414 374.809 79.9027 377.498 81.8977C380.274 83.8927 382.529 86.1479 384.264 88.6633C385.999 91.092 387.083 93.6074 387.517 96.2096L384.394 95.2988L384.784 77.0837H394.412V145H384.654V127.305L387.256 125.874C386.736 128.476 385.565 130.992 383.744 133.42C381.922 135.849 379.58 138.061 376.718 140.056C373.855 141.964 370.646 143.482 367.09 144.61C363.533 145.737 359.804 146.301 355.9 146.301ZM357.982 136.933C363.187 136.933 367.827 135.849 371.904 133.681C376.067 131.425 379.32 128.346 381.662 124.443C384.004 120.453 385.175 115.943 385.175 110.912C385.175 105.968 384.004 101.544 381.662 97.6407C379.32 93.7375 376.067 90.6149 371.904 88.273C367.827 85.931 363.187 84.7601 357.982 84.7601C352.604 84.7601 347.877 85.931 343.8 88.273C339.724 90.6149 336.514 93.7375 334.172 97.6407C331.831 101.544 330.66 105.968 330.66 110.912C330.66 115.943 331.787 120.41 334.042 124.313C336.298 128.216 339.464 131.295 343.54 133.551C347.704 135.806 352.518 136.933 357.982 136.933ZM429.901 145V57.6976H439.79V145H429.901ZM411.296 86.4515V77.0837H460.867V86.4515H411.296ZM505.718 146.301C498.779 146.301 492.62 144.783 487.242 141.747C481.951 138.711 477.788 134.548 474.752 129.257C471.803 123.879 470.328 117.764 470.328 110.912C470.328 104.059 471.89 97.9877 475.012 92.6966C478.135 87.3189 482.385 83.112 487.763 80.0762C493.141 77.0403 499.256 75.5224 506.108 75.5224C510.358 75.5224 514.261 76.0862 517.818 77.2138C521.461 78.3414 524.627 79.9027 527.316 81.8977C530.091 83.8927 532.346 86.1479 534.081 88.6633C535.816 91.092 536.9 93.6074 537.334 96.2096L534.211 95.2988L534.602 77.0837H544.23V145H534.471V127.305L537.074 125.874C536.553 128.476 535.382 130.992 533.561 133.42C531.739 135.849 529.397 138.061 526.535 140.056C523.673 141.964 520.463 143.482 516.907 144.61C513.351 145.737 509.621 146.301 505.718 146.301ZM507.799 136.933C513.004 136.933 517.644 135.849 521.721 133.681C525.884 131.425 529.137 128.346 531.479 124.443C533.821 120.453 534.992 115.943 534.992 110.912C534.992 105.968 533.821 101.544 531.479 97.6407C529.137 93.7375 525.884 90.6149 521.721 88.273C517.644 85.931 513.004 84.7601 507.799 84.7601C502.422 84.7601 497.694 85.931 493.618 88.273C489.541 90.6149 486.332 93.7375 483.99 97.6407C481.648 101.544 480.477 105.968 480.477 110.912C480.477 115.943 481.604 120.41 483.86 124.313C486.115 128.216 489.281 131.295 493.357 133.551C497.521 135.806 502.335 136.933 507.799 136.933ZM568.789 145V53.9245H613.807C619.358 53.9245 624.389 55.2256 628.899 57.8277C633.496 60.3432 637.139 63.8127 639.828 68.2364C642.517 72.66 643.862 77.6475 643.862 83.1988C643.862 88.9235 642.474 94.0845 639.698 98.6816C636.923 103.279 633.149 106.922 628.379 109.611C623.695 112.3 618.491 113.644 612.766 113.644H588.306V145H568.789ZM588.045 96.0795H610.164C612.592 96.0795 614.804 95.5157 616.799 94.388C618.881 93.2604 620.529 91.7425 621.743 89.8343C622.958 87.926 623.565 85.7576 623.565 83.3289C623.565 80.9869 622.958 78.9486 621.743 77.2138C620.529 75.3923 618.881 74.0045 616.799 73.0504C614.804 72.0095 612.592 71.4891 610.164 71.4891H588.045V96.0795ZM662.76 145V48.7202H681.235V145H662.76ZM732.071 146.301C725.305 146.301 719.32 144.783 714.116 141.747C708.998 138.625 704.965 134.375 702.016 128.997C699.153 123.619 697.722 117.417 697.722 110.391C697.722 103.452 699.197 97.3372 702.146 92.0461C705.182 86.6683 709.302 82.4615 714.506 79.4257C719.797 76.3031 725.869 74.7418 732.721 74.7418C736.711 74.7418 740.398 75.2622 743.78 76.3031C747.163 77.3439 750.112 78.7751 752.628 80.5966C755.143 82.3314 757.182 84.283 758.743 86.4515C760.391 88.5332 761.432 90.745 761.865 93.087L757.702 92.9569V76.173H775.917V145H757.442V127.435L761.345 127.826C760.825 130.081 759.74 132.293 758.092 134.461C756.444 136.63 754.276 138.625 751.587 140.446C748.985 142.181 745.992 143.612 742.609 144.74C739.313 145.781 735.8 146.301 732.071 146.301ZM737.015 130.298C741.178 130.298 744.821 129.474 747.944 127.826C751.153 126.178 753.625 123.879 755.36 120.93C757.095 117.894 757.962 114.381 757.962 110.391C757.962 106.575 757.095 103.192 755.36 100.243C753.625 97.2938 751.153 94.9519 747.944 93.2171C744.821 91.4823 741.178 90.6149 737.015 90.6149C732.851 90.6149 729.208 91.4823 726.086 93.2171C722.963 94.9519 720.491 97.2938 718.67 100.243C716.935 103.192 716.067 106.575 716.067 110.391C716.067 114.381 716.935 117.894 718.67 120.93C720.491 123.879 722.963 126.178 726.086 127.826C729.208 129.474 732.851 130.298 737.015 130.298ZM808.483 174.925L825.657 139.535L825.527 150.074L788.316 76.173H809.654L827.739 114.945C829.04 117.547 830.211 120.149 831.252 122.752C832.379 125.354 833.246 127.869 833.854 130.298L830.341 131.209C831.121 129.127 832.076 126.742 833.203 124.053C834.331 121.277 835.502 118.458 836.716 115.596L853.24 76.173H874.447L841.14 145.26L827.348 174.925H808.483Z" fill="url(#paint3_linear_1026_12789)"/>
<defs>
<linearGradient id="paint0_linear_1026_12789" x1="126.22" y1="-30.9847" x2="105.5" y2="211" gradientUnits="userSpaceOnUse">
<stop stop-color="#223450"/>
<stop offset="1" stop-color="#162132"/>
</linearGradient>
<linearGradient id="paint1_linear_1026_12789" x1="82.4992" y1="2.09087" x2="34.4064" y2="200.545" gradientUnits="userSpaceOnUse">
<stop offset="0.215" stop-color="#36FF8F"/>
<stop offset="1" stop-color="#22D08A"/>
</linearGradient>
<linearGradient id="paint2_linear_1026_12789" x1="162.907" y1="6.08276" x2="109.492" y2="219.554" gradientUnits="userSpaceOnUse">
<stop offset="0.205" stop-color="#21ADFE"/>
<stop offset="1" stop-color="#1667D1"/>
</linearGradient>
<linearGradient id="paint3_linear_1026_12789" x1="221" y1="96.5" x2="881" y2="96.5" gradientUnits="userSpaceOnUse">
<stop stop-color="#36FF8F"/>
<stop offset="0.53" stop-color="#2BD5C8"/>
<stop offset="1" stop-color="#21ADFE"/>
</linearGradient>
</defs>
</svg>
