<svg width="211" height="211" viewBox="0 0 211 211" fill="none" xmlns="http://www.w3.org/2000/svg">
<circle cx="105.5" cy="105.5" r="105.5" fill="#162132"/>
<circle cx="105.5" cy="105.5" r="105.5" fill="url(#paint0_linear_1025_5372)"/>
<path fill-rule="evenodd" clip-rule="evenodd" d="M70.7136 72.6144V102.268H60.8289V69.1928C60.8289 65.6233 63.7225 62.7297 67.292 62.7297H143.708C147.278 62.7297 150.171 65.6233 150.171 69.1928V102.268H140.287V72.6144H70.7136Z" fill="#36FF8F"/>
<path fill-rule="evenodd" clip-rule="evenodd" d="M70.7136 138.005V108.351H60.8289V141.427C60.8289 144.996 63.7225 147.89 67.292 147.89H143.708C147.278 147.89 150.171 144.996 150.171 141.427V108.351H140.287V138.005H70.7136Z" fill="#21ADFE"/>
<path d="M101.508 6.08276C76.592 7.08314 52.9029 17.42 35.2016 35.1213C16.5572 53.7656 6.08295 79.0527 6.08295 105.42C6.08295 131.787 16.5572 157.074 35.2015 175.718C52.9028 193.42 76.592 203.756 101.508 204.757V189.543C80.6251 188.553 60.7997 179.821 45.9493 164.971C30.1555 149.177 21.2826 127.756 21.2826 105.42C21.2826 83.0839 30.1555 61.6629 45.9493 45.869C60.7997 31.0186 80.6251 22.287 101.508 21.2969V6.08276Z" fill="url(#paint1_linear_1025_5372)"/>
<path d="M109.492 6.08276C134.408 7.08314 158.097 17.42 175.798 35.1213C194.443 53.7656 204.917 79.0527 204.917 105.42C204.917 131.787 194.443 157.074 175.798 175.718C158.097 193.42 134.408 203.756 109.492 204.757V189.543C130.375 188.553 150.2 179.821 165.051 164.971C180.845 149.177 189.717 127.756 189.717 105.42C189.717 83.0839 180.845 61.6629 165.051 45.869C150.2 31.0186 130.375 22.287 109.492 21.2969V6.08276Z" fill="url(#paint2_linear_1025_5372)"/>
<path d="M82.6282 116.805H89.6717C89.8011 116.805 89.9059 116.909 89.9059 117.039V127.662C89.9059 127.791 90.0108 127.896 90.1401 127.896H104.25C104.38 127.896 104.485 127.791 104.485 127.662V117.039C104.485 116.909 104.589 116.805 104.719 116.805H111.851C112.051 116.805 112.159 116.57 112.029 116.418L97.4316 99.3598C97.3382 99.2507 97.1694 99.2506 97.0758 99.3597L82.4504 116.418C82.3202 116.57 82.4281 116.805 82.6282 116.805Z" fill="#36FF8F"/>
<path d="M99.5488 93.9704H106.592C106.722 93.9704 106.827 93.8656 106.827 93.7363V83.1135C106.827 82.9842 106.931 82.8793 107.061 82.8793H121.171C121.3 82.8793 121.405 82.9842 121.405 83.1135V93.7363C121.405 93.8656 121.51 93.9704 121.639 93.9704H128.771C128.971 93.9704 129.079 94.205 128.949 94.3569L114.352 111.415C114.259 111.524 114.09 111.524 113.996 111.415L99.371 94.3571C99.2408 94.2052 99.3487 93.9704 99.5488 93.9704Z" fill="#21ADFE"/>
<defs>
<linearGradient id="paint0_linear_1025_5372" x1="126.22" y1="-30.9847" x2="105.5" y2="211" gradientUnits="userSpaceOnUse">
<stop stop-color="#223450"/>
<stop offset="1" stop-color="#162132"/>
</linearGradient>
<linearGradient id="paint1_linear_1025_5372" x1="82.4992" y1="2.09087" x2="34.4064" y2="200.545" gradientUnits="userSpaceOnUse">
<stop offset="0.215" stop-color="#36FF8F"/>
<stop offset="1" stop-color="#22D08A"/>
</linearGradient>
<linearGradient id="paint2_linear_1025_5372" x1="162.907" y1="6.08276" x2="109.492" y2="219.554" gradientUnits="userSpaceOnUse">
<stop offset="0.205" stop-color="#21ADFE"/>
<stop offset="1" stop-color="#1667D1"/>
</linearGradient>
</defs>
</svg>
